<?xml version="1.0"?>
<svg xmlns="http://www.w3.org/2000/svg" viewBox="0 0 512 512" width="512" height="512"><g id="Outline"><path d="M192.438,249.344a32.925,32.925,0,0,0-32.915-2.05l-3.1,1.55,7.154,14.312,3.1-1.551a16.885,16.885,0,0,1,16.883,1.051,32.934,32.934,0,0,0,25.79,4.628c.219.905.458,1.8.727,2.685l-2.092,2.823a4.709,4.709,0,0,1-4.713,1.951A20.658,20.658,0,0,0,183.351,283l-4.628,6.247,12.856,9.524,4.628-6.247a4.706,4.706,0,0,1,4.713-1.952,20.585,20.585,0,0,0,17.163-5.187c.185.237.369.475.558.709a16.887,16.887,0,0,1-12.293,10.147,32.924,32.924,0,0,0-24.724,21.826l-1.1,3.289,15.18,5.058,1.1-3.287a16.882,16.882,0,0,1,12.682-11.2,32.919,32.919,0,0,0,21.5-14.979q1.186.728,2.42,1.385l.519,3.489a4.706,4.706,0,0,1-1.951,4.712,20.654,20.654,0,0,0-8.254,19.925l1.144,7.689,15.826-2.355-1.144-7.689a4.709,4.709,0,0,1,1.952-4.713,20.6,20.6,0,0,0,8.468-15.785c.3.038.6.083.907.116a16.892,16.892,0,0,1-1.528,15.839,32.922,32.922,0,0,0-2.05,32.915l1.55,3.1,14.312-7.154-1.551-3.1a16.889,16.889,0,0,1,1.051-16.883,32.922,32.922,0,0,0,4.613-25.787c.91-.22,1.811-.459,2.7-.73l2.823,2.092a4.705,4.705,0,0,1,1.951,4.713A20.655,20.655,0,0,0,283,328.649l6.247,4.628,9.524-12.856-6.247-4.628a4.709,4.709,0,0,1-1.952-4.713,20.6,20.6,0,0,0-5.187-17.163c.237-.185.475-.369.709-.558a16.887,16.887,0,0,1,10.147,12.293,32.924,32.924,0,0,0,21.826,24.724l3.289,1.1,5.058-15.18-3.287-1.1a16.882,16.882,0,0,1-11.2-12.682,32.919,32.919,0,0,0-14.979-21.5q.728-1.187,1.385-2.42l3.489-.519a4.707,4.707,0,0,1,4.712,1.951,20.6,20.6,0,0,0,16.709,8.494,21.96,21.96,0,0,0,3.216-.24l7.689-1.144-2.355-15.826-7.689,1.144a4.7,4.7,0,0,1-4.713-1.952,20.6,20.6,0,0,0-15.785-8.468c.038-.3.083-.6.116-.907a16.888,16.888,0,0,1,15.839,1.528,32.923,32.923,0,0,0,32.915,2.05l3.1-1.55-7.154-14.312-3.1,1.551a16.883,16.883,0,0,1-16.883-1.051,32.922,32.922,0,0,0-25.787-4.613c-.219-.909-.459-1.811-.73-2.7l2.092-2.823a4.7,4.7,0,0,1,4.713-1.951A20.652,20.652,0,0,0,328.649,229l4.628-6.247-12.856-9.524-4.628,6.247a4.712,4.712,0,0,1-4.713,1.952,20.6,20.6,0,0,0-17.163,5.187c-.185-.237-.369-.475-.558-.709a16.887,16.887,0,0,1,12.293-10.147,32.924,32.924,0,0,0,24.724-21.826l1.1-3.289-15.18-5.058-1.1,3.287a16.882,16.882,0,0,1-12.682,11.2,32.919,32.919,0,0,0-21.5,14.979q-1.187-.727-2.42-1.385l-.519-3.489a4.706,4.706,0,0,1,1.951-4.712,20.654,20.654,0,0,0,8.254-19.925l-1.144-7.689-15.826,2.355,1.144,7.689a4.709,4.709,0,0,1-1.952,4.713,20.6,20.6,0,0,0-8.468,15.785c-.3-.038-.6-.083-.907-.116a16.892,16.892,0,0,1,1.528-15.839,32.922,32.922,0,0,0,2.05-32.915l-1.55-3.1-14.312,7.154,1.551,3.1a16.889,16.889,0,0,1-1.051,16.883,32.922,32.922,0,0,0-4.613,25.787c-.91.22-1.811.459-2.7.73l-2.823-2.092a4.705,4.705,0,0,1-1.951-4.713A20.655,20.655,0,0,0,229,183.351l-6.247-4.628-9.524,12.856,6.247,4.628a4.709,4.709,0,0,1,1.952,4.713,20.6,20.6,0,0,0,5.187,17.163c-.237.185-.475.369-.709.558a16.887,16.887,0,0,1-10.147-12.293,32.924,32.924,0,0,0-21.826-24.724l-3.289-1.1-5.058,15.18,3.287,1.1a16.882,16.882,0,0,1,11.2,12.682,32.919,32.919,0,0,0,14.979,21.5q-.727,1.186-1.385,2.42l-3.489.519a4.707,4.707,0,0,1-4.712-1.951,20.652,20.652,0,0,0-19.925-8.254l-7.689,1.144,2.355,15.826,7.689-1.144a4.71,4.71,0,0,1,4.713,1.952,20.6,20.6,0,0,0,15.785,8.467c-.038.3-.083.6-.116.908A16.885,16.885,0,0,1,192.438,249.344ZM256,224a32,32,0,1,1-32,32A32.036,32.036,0,0,1,256,224Z"/><path d="M128,256a127.984,127.984,0,1,0,50.86-102.152l9.651,12.761A111.005,111.005,0,0,1,256,144a111.993,111.993,0,1,1-85.856,40.074l-12.26-10.281A128.121,128.121,0,0,0,128,256Z"/><path d="M256,480A223.449,223.449,0,0,1,72.889,385.032,23.989,23.989,0,0,0,50.267,344.7,224.2,224.2,0,0,1,74.344,124.932a32.086,32.086,0,1,0-12.314-10.27A240.18,240.18,0,0,0,36.742,353.7,23.987,23.987,0,0,0,56,392c.731,0,1.454-.038,2.169-.1a240.021,240.021,0,0,0,353.469,46.8l-10.381-12.174A224.041,224.041,0,0,1,256,480ZM88,80A16,16,0,1,1,72,96,16.019,16.019,0,0,1,88,80ZM48,368a8,8,0,1,1,8,8A8.009,8.009,0,0,1,48,368Z"/><path d="M496,256A239.085,239.085,0,0,0,413.4,74.84a23.983,23.983,0,0,0-38.691-27.46A240.184,240.184,0,0,0,124.054,55.5l8.806,13.358a224.164,224.164,0,0,1,235.227-6.823c-.053.65-.087,1.305-.087,1.968a23.985,23.985,0,0,0,33.755,21.92,224.055,224.055,0,0,1,47.473,283.442,32.09,32.09,0,1,0,13.669,8.316A239.357,239.357,0,0,0,496,256ZM384,64a8,8,0,1,1,8,8A8.009,8.009,0,0,1,384,64Zm56,352a16,16,0,1,1,16-16A16.019,16.019,0,0,1,440,416Z"/><path d="M408,224a24,24,0,1,0,24-24c-.227,0-.452.011-.677.017A184.46,184.46,0,0,0,256,72C154.542,72,72,154.542,72,256A184.153,184.153,0,0,0,176.086,421.772c-.051.737-.086,1.478-.086,2.228a31.993,31.993,0,0,0,60.28,14.953A186.561,186.561,0,0,0,256,440,184.007,184.007,0,0,0,439.857,263.308l-15.988-.625A168.006,168.006,0,0,1,256,424c-5.357,0-10.716-.275-16.02-.776a31.98,31.98,0,0,0-58.737-16.745A168.146,168.146,0,0,1,88,256c0-92.636,75.364-168,168-168A168.408,168.408,0,0,1,416.368,205.812,23.947,23.947,0,0,0,408,224ZM208,408a16,16,0,1,1-16,16A16.019,16.019,0,0,1,208,408ZM440,224a8,8,0,1,1-8-8A8.009,8.009,0,0,1,440,224Z"/></g></svg>
